<svg width="62" height="58" viewBox="0 0 62 58" fill="none" xmlns="http://www.w3.org/2000/svg">
<rect x="12" y="7" width="50" height="50" fill="#E9F0C9"/>
<g filter="url(#filter0_d_12_36)">
<rect x="5" y="1" width="48" height="48" stroke="white" stroke-width="2" shape-rendering="crispEdges"/>
</g>
<path d="M25.4803 16.206C25.3998 15.9077 25.2814 15.6449 25.1252 15.4176C24.9689 15.1856 24.7772 14.9891 24.5499 14.8281C24.3226 14.6671 24.0622 14.5464 23.7686 14.4659C23.4751 14.3807 23.1531 14.3381 22.8027 14.3381C22.0972 14.3381 21.4864 14.5085 20.9703 14.8494C20.459 15.1903 20.0636 15.6875 19.7843 16.3409C19.5049 16.9896 19.3652 17.7779 19.3652 18.706C19.3652 19.6387 19.5002 20.4342 19.7701 21.0923C20.04 21.7505 20.4306 22.2524 20.9419 22.598C21.4533 22.9437 22.0736 23.1165 22.8027 23.1165C23.4467 23.1165 23.9912 23.0123 24.4363 22.804C24.8861 22.5909 25.227 22.2902 25.459 21.902C25.691 21.5137 25.807 21.0568 25.807 20.5312L26.4604 20.6094H22.9235V18.0455H29.1948V19.9702C29.1948 21.2723 28.9178 22.3873 28.3638 23.3153C27.8146 24.2434 27.057 24.956 26.0911 25.4531C25.1299 25.9503 24.0243 26.1989 22.7743 26.1989C21.387 26.1989 20.1678 25.8982 19.1167 25.2969C18.0655 24.6955 17.2464 23.8385 16.6593 22.7259C16.0721 21.6084 15.7786 20.2827 15.7786 18.7486C15.7786 17.5554 15.9561 16.4972 16.3113 15.5739C16.6664 14.6458 17.1612 13.8598 17.7956 13.2159C18.4348 12.572 19.1735 12.0843 20.0115 11.7528C20.8543 11.4214 21.7611 11.2557 22.7317 11.2557C23.5745 11.2557 24.3581 11.3764 25.0826 11.6179C25.8117 11.8594 26.4557 12.2003 27.0144 12.6406C27.5778 13.081 28.0347 13.6042 28.3851 14.2102C28.7355 14.8163 28.9533 15.4815 29.0385 16.206H25.4803Z" fill="black"/>
<path d="M36.7701 42.3182C35.7331 42.3182 34.8453 42.1738 34.1067 41.8849C33.3681 41.5961 32.7881 41.2008 32.3667 40.6989C31.9453 40.197 31.6919 39.6288 31.6067 38.9943L34.8951 38.8097C34.9566 39.0322 35.0703 39.2263 35.236 39.392C35.4064 39.5578 35.6266 39.6856 35.8965 39.7756C36.1711 39.8655 36.4931 39.9105 36.8624 39.9105C37.4448 39.9105 37.9254 39.7685 38.3042 39.4844C38.6877 39.205 38.8794 38.715 38.8794 38.0142V36.0966H38.7587C38.6214 36.4328 38.4131 36.7334 38.1337 36.9986C37.8543 37.2637 37.5063 37.4721 37.0897 37.6236C36.6777 37.7751 36.2042 37.8509 35.6692 37.8509C34.8738 37.8509 34.1446 37.6662 33.4817 37.2969C32.8236 36.9228 32.2956 36.3452 31.8979 35.5639C31.5049 34.7779 31.3084 33.767 31.3084 32.5312C31.3084 31.2576 31.512 30.2088 31.9192 29.3849C32.3264 28.5563 32.8591 27.9432 33.5172 27.5455C34.1801 27.1477 34.8927 26.9489 35.655 26.9489C36.2279 26.9489 36.718 27.0483 37.1252 27.2472C37.5371 27.4413 37.8757 27.6922 38.1408 28C38.406 28.3078 38.6072 28.6274 38.7445 28.9588H38.8439V27.0909H42.3027V38.0426C42.3027 38.9659 42.0707 39.7448 41.6067 40.3793C41.1427 41.0137 40.494 41.4943 39.6607 41.821C38.8274 42.1525 37.8638 42.3182 36.7701 42.3182ZM36.8766 35.3224C37.298 35.3224 37.6578 35.2112 37.9561 34.9886C38.2544 34.7661 38.4841 34.4465 38.6451 34.0298C38.806 33.6132 38.8865 33.1136 38.8865 32.5312C38.8865 31.9394 38.806 31.4304 38.6451 31.0043C38.4888 30.5734 38.2592 30.242 37.9561 30.0099C37.6578 29.7779 37.298 29.6619 36.8766 29.6619C36.4457 29.6619 36.0811 29.7803 35.7828 30.017C35.4846 30.2538 35.2573 30.5876 35.101 31.0185C34.9495 31.4446 34.8738 31.9489 34.8738 32.5312C34.8738 33.1136 34.9519 33.6132 35.1081 34.0298C35.2644 34.4465 35.4893 34.7661 35.7828 34.9886C36.0811 35.2112 36.4457 35.3224 36.8766 35.3224Z" fill="black"/>
<path d="M40.5822 18V16.3807C40.5822 15.9309 40.6698 15.4763 40.845 15.017C41.0249 14.553 41.2569 14.1222 41.541 13.7244C41.8298 13.322 42.1281 12.9905 42.4359 12.7301L43.9132 13.5398C43.6575 13.9564 43.4539 14.392 43.3024 14.8466C43.1509 15.2964 43.0775 15.8054 43.0822 16.3736V18H40.5822Z" fill="black"/>
<defs>
<filter id="filter0_d_12_36" x="0" y="0" width="58" height="58" filterUnits="userSpaceOnUse" color-interpolation-filters="sRGB">
<feFlood flood-opacity="0" result="BackgroundImageFix"/>
<feColorMatrix in="SourceAlpha" type="matrix" values="0 0 0 0 0 0 0 0 0 0 0 0 0 0 0 0 0 0 127 0" result="hardAlpha"/>
<feOffset dy="4"/>
<feGaussianBlur stdDeviation="2"/>
<feComposite in2="hardAlpha" operator="out"/>
<feColorMatrix type="matrix" values="0 0 0 0 0 0 0 0 0 0 0 0 0 0 0 0 0 0 0.25 0"/>
<feBlend mode="normal" in2="BackgroundImageFix" result="effect1_dropShadow_12_36"/>
<feBlend mode="normal" in="SourceGraphic" in2="effect1_dropShadow_12_36" result="shape"/>
</filter>
</defs>
</svg>
