<svg width="62" height="58" viewBox="0 0 62 58" fill="none" xmlns="http://www.w3.org/2000/svg">
<rect x="12" y="7" width="50" height="50" fill="#E9F0C9"/>
<g filter="url(#filter0_d_2_74)">
<rect x="5" y="1" width="48" height="48" stroke="white" stroke-width="2" shape-rendering="crispEdges"/>
</g>
<path d="M25.4803 16.206C25.3998 15.9077 25.2814 15.6449 25.1252 15.4176C24.9689 15.1856 24.7772 14.9891 24.5499 14.8281C24.3226 14.6671 24.0622 14.5464 23.7686 14.4659C23.4751 14.3807 23.1531 14.3381 22.8027 14.3381C22.0972 14.3381 21.4864 14.5085 20.9703 14.8494C20.459 15.1903 20.0636 15.6875 19.7843 16.3409C19.5049 16.9896 19.3652 17.7779 19.3652 18.706C19.3652 19.6387 19.5002 20.4342 19.7701 21.0923C20.04 21.7505 20.4306 22.2524 20.9419 22.598C21.4533 22.9437 22.0736 23.1165 22.8027 23.1165C23.4467 23.1165 23.9912 23.0123 24.4363 22.804C24.8861 22.5909 25.227 22.2902 25.459 21.902C25.691 21.5137 25.807 21.0568 25.807 20.5312L26.4604 20.6094H22.9235V18.0455H29.1948V19.9702C29.1948 21.2723 28.9178 22.3873 28.3638 23.3153C27.8146 24.2434 27.057 24.956 26.0911 25.4531C25.1299 25.9503 24.0243 26.1989 22.7743 26.1989C21.387 26.1989 20.1678 25.8982 19.1167 25.2969C18.0655 24.6955 17.2464 23.8385 16.6593 22.7259C16.0721 21.6084 15.7786 20.2827 15.7786 18.7486C15.7786 17.5554 15.9561 16.4972 16.3113 15.5739C16.6664 14.6458 17.1612 13.8598 17.7956 13.2159C18.4348 12.572 19.1735 12.0843 20.0115 11.7528C20.8543 11.4214 21.7611 11.2557 22.7317 11.2557C23.5745 11.2557 24.3581 11.3764 25.0826 11.6179C25.8117 11.8594 26.4557 12.2003 27.0144 12.6406C27.5778 13.081 28.0347 13.6042 28.3851 14.2102C28.7355 14.8163 28.9533 15.4815 29.0385 16.206H25.4803Z" fill="black"/>
<path d="M41.873 30.4219L38.6841 30.5071C38.651 30.2798 38.561 30.0786 38.4142 29.9034C38.2675 29.7235 38.0757 29.5838 37.839 29.4844C37.6069 29.3802 37.3371 29.3281 37.0293 29.3281C36.6268 29.3281 36.2836 29.4086 35.9995 29.5696C35.7201 29.7306 35.5828 29.9484 35.5875 30.223C35.5828 30.4361 35.668 30.6207 35.8432 30.777C36.0231 30.9332 36.3427 31.0587 36.802 31.1534L38.9043 31.5511C39.9933 31.7595 40.803 32.1051 41.3333 32.5881C41.8683 33.071 42.1382 33.7102 42.1429 34.5057C42.1382 35.2538 41.9157 35.9048 41.4753 36.4588C41.0397 37.0128 40.4431 37.4437 39.6855 37.7514C38.928 38.0545 38.0615 38.206 37.0861 38.206C35.5283 38.206 34.2997 37.8864 33.4 37.2472C32.5051 36.6032 31.9938 35.7415 31.8659 34.6619L35.2963 34.5767C35.3721 34.9744 35.5686 35.2775 35.8858 35.4858C36.2031 35.6941 36.6079 35.7983 37.1003 35.7983C37.5454 35.7983 37.9076 35.7154 38.187 35.5497C38.4663 35.384 38.6084 35.1638 38.6131 34.8892C38.6084 34.643 38.4995 34.4465 38.2864 34.2997C38.0733 34.1482 37.7395 34.0298 37.285 33.9446L35.3816 33.5824C34.2878 33.3835 33.4734 33.0166 32.9384 32.4815C32.4033 31.9418 32.1382 31.2552 32.1429 30.4219C32.1382 29.6927 32.3323 29.0701 32.7253 28.554C33.1183 28.0331 33.677 27.6354 34.4015 27.3608C35.1259 27.0862 35.9805 26.9489 36.9654 26.9489C38.4426 26.9489 39.6074 27.259 40.4597 27.8793C41.312 28.4948 41.7831 29.3423 41.873 30.4219Z" fill="black"/>
<path d="M40.5822 18V16.3807C40.5822 15.9309 40.6698 15.4763 40.845 15.017C41.0249 14.553 41.2569 14.1222 41.541 13.7244C41.8298 13.322 42.1281 12.9905 42.4359 12.7301L43.9132 13.5398C43.6575 13.9564 43.4539 14.392 43.3024 14.8466C43.1509 15.2964 43.0775 15.8054 43.0822 16.3736V18H40.5822Z" fill="black"/>
<defs>
<filter id="filter0_d_2_74" x="0" y="0" width="58" height="58" filterUnits="userSpaceOnUse" color-interpolation-filters="sRGB">
<feFlood flood-opacity="0" result="BackgroundImageFix"/>
<feColorMatrix in="SourceAlpha" type="matrix" values="0 0 0 0 0 0 0 0 0 0 0 0 0 0 0 0 0 0 127 0" result="hardAlpha"/>
<feOffset dy="4"/>
<feGaussianBlur stdDeviation="2"/>
<feComposite in2="hardAlpha" operator="out"/>
<feColorMatrix type="matrix" values="0 0 0 0 0 0 0 0 0 0 0 0 0 0 0 0 0 0 0.25 0"/>
<feBlend mode="normal" in2="BackgroundImageFix" result="effect1_dropShadow_2_74"/>
<feBlend mode="normal" in="SourceGraphic" in2="effect1_dropShadow_2_74" result="shape"/>
</filter>
</defs>
</svg>
